<svg xmlns="http://www.w3.org/2000/svg" width="13.574" height="2.747" viewBox="0 0 13.574 2.747">
  <path id="Path_17686" data-name="Path 17686" d="M-5.408.269a1.3,1.3,0,0,1-.958-.4,1.326,1.326,0,0,1-.4-.964,1.346,1.346,0,0,1,.4-.97,1.286,1.286,0,0,1,.958-.409,1.32,1.32,0,0,1,.977.409,1.336,1.336,0,0,1,.4.97,1.316,1.316,0,0,1-.4.964A1.33,1.33,0,0,1-5.408.269Zm5.42,0a1.3,1.3,0,0,1-.958-.4,1.326,1.326,0,0,1-.4-.964,1.346,1.346,0,0,1,.4-.97,1.286,1.286,0,0,1,.958-.409,1.32,1.32,0,0,1,.977.409,1.336,1.336,0,0,1,.4.97,1.316,1.316,0,0,1-.4.964A1.33,1.33,0,0,1,.012.269Zm5.42,0a1.3,1.3,0,0,1-.958-.4,1.326,1.326,0,0,1-.4-.964,1.346,1.346,0,0,1,.4-.97,1.286,1.286,0,0,1,.958-.409,1.32,1.32,0,0,1,.977.409,1.336,1.336,0,0,1,.4.97,1.316,1.316,0,0,1-.4.964A1.33,1.33,0,0,1,5.432.269Z" transform="translate(6.763 2.478)" fill="#4a525a"/>
</svg>
