<svg xmlns="http://www.w3.org/2000/svg" width="104" height="104" viewBox="0 0 104 104">
  <g id="Group_23653" data-name="Group 23653" transform="translate(-847 -214)">
    <g id="Rectangle_14382" data-name="Rectangle 14382" transform="translate(847 214)" fill="#fff" stroke="#dededf" stroke-width="1">
      <rect width="104" height="104" rx="8" stroke="none"/>
      <rect x="0.5" y="0.5" width="103" height="103" rx="7.5" fill="none"/>
    </g>
    <g id="Group_22961" data-name="Group 22961" transform="translate(885.001 244)">
      <path id="Path_13847" data-name="Path 13847" d="M-982.595-385.666v-14.564c.014-.022.039-.042.041-.065a3.483,3.483,0,0,1,3.659-2.936c.729.02,1.459,0,2.188.008a.329.329,0,0,0,.35-.217q.592-1.175,1.208-2.337a1.587,1.587,0,0,1,1.55-.887c2.159.024,4.318.009,6.479.009,1.23,0,2.46,0,3.69,0a1.356,1.356,0,0,1,1.226.621,6.226,6.226,0,0,1,.328.554q.532,1.025,1.05,2.057a.313.313,0,0,0,.331.2c.766-.01,1.531-.006,2.3,0a3.462,3.462,0,0,1,3.6,3.535q0,6.746,0,13.491a3.748,3.748,0,0,1-.088.848,3.463,3.463,0,0,1-3.512,2.686q-8.476,0-16.948,0c-1.312,0-2.625.008-3.937,0A3.482,3.482,0,0,1-982.41-385C-982.484-385.221-982.534-385.446-982.595-385.666Zm14.038-14.135a6.943,6.943,0,0,0-7.037,6.8,6.938,6.938,0,0,0,6.959,6.9,6.943,6.943,0,0,0,7.037-6.8A6.939,6.939,0,0,0-968.557-399.8Z" transform="translate(982.595 406.665)" fill="#1a7ac2"/>
      <path id="Path_13848" data-name="Path 13848" d="M-821.1-250.368a5.207,5.207,0,0,1-5.259,5.137,5.2,5.2,0,0,1-5.239-5.155,5.206,5.206,0,0,1,5.244-5.124A5.207,5.207,0,0,1-821.1-250.368Z" transform="translate(840.344 264.087)" fill="#1a7ac2"/>
    </g>
    <text id="Thêm_ảnh" data-name="Thêm ảnh" transform="translate(868.001 284)" fill="rgba(0,0,0,0.87)" font-size="14" font-family="SegoeUI, Segoe UI"><tspan x="0" y="0">Thêm ảnh</tspan></text>
  </g>
</svg>
