<svg xmlns="http://www.w3.org/2000/svg" width="8" height="5" viewBox="0 0 8 5">
  <path id="Path_13735" data-name="Path 13735" d="M1.953,4c.348.338.691.674,1.038,1.006.582.558,1.169,1.112,1.75,1.671a.741.741,0,0,1,.033,1.093.821.821,0,0,1-1.151,0c-.759-.715-1.51-1.437-2.265-2.156C1,5.268.645,4.933.294,4.591A.745.745,0,0,1,.3,3.4Q1.928,1.845,3.558.293A.858.858,0,0,1,4.565.086.74.74,0,0,1,4.771,1.3c-.311.315-.639.614-.96.921L2,3.945C1.982,3.961,1.967,3.978,1.953,4Z" transform="translate(0 5) rotate(-90)" fill="#2185d0"/>
</svg>
