<svg id="Group_2861" data-name="Group 2861" xmlns="http://www.w3.org/2000/svg" width="14" height="14" viewBox="0 0 14 14">
  <g id="Group_8670" data-name="Group 8670" transform="translate(0 0)">
    <g id="Group_2846" data-name="Group 2846">
      <path id="Path_2079" data-name="Path 2079" d="M-2000.593-1100.626a5.442,5.442,0,0,1-.892,3.093c-.211.327-.146.494.108.725,1.025.933,2.037,1.88,3.046,2.83a1.243,1.243,0,0,1,.35.482.733.733,0,0,1-.283.924.8.8,0,0,1-1.026-.129q-1.381-1.282-2.764-2.562l-.157-.149c-.584-.557-.588-.564-1.26-.163a5.587,5.587,0,0,1-8.131-3.147,5.793,5.793,0,0,1,3.974-7.529,5.5,5.5,0,0,1,6.333,2.871A5.467,5.467,0,0,1-2000.593-1100.626Zm-5.676-5.059a4.91,4.91,0,0,0-4.949,5.072,4.945,4.945,0,0,0,5.08,5.078,4.92,4.92,0,0,0,4.846-5.058A4.895,4.895,0,0,0-2006.269-1105.685Z" transform="translate(2011.926 1106.442)" fill="#1a7ac2"/>
    </g>
  </g>
</svg>
