<svg xmlns="http://www.w3.org/2000/svg" width="14" height="14" viewBox="0 0 14 14">
  <path id="Path_17688" data-name="Path 17688" d="M-1125.723-436.909c-1.955,0-3.911-.015-5.866.01a1.172,1.172,0,0,1-1.144-1.063q.026-4.944,0-9.888a1.134,1.134,0,0,1,1.107-1.028c.288.022.58,0,.87.006.162,0,.217-.058.212-.2-.007-.184,0-.369,0-.553a1.27,1.27,0,0,1,1.151-1.235,2.771,2.771,0,0,1,1.065.033,1.249,1.249,0,0,1,.985,1.256c0,.17,0,.34,0,.51,0,.132.057.19.206.189q1.432-.006,2.864,0c.158,0,.219-.061.216-.2,0-.22-.006-.44,0-.659a1.185,1.185,0,0,1,.828-1.045,2.518,2.518,0,0,1,1.5-.006,1.282,1.282,0,0,1,.833,1.031,5.493,5.493,0,0,1,0,.616c-.014.2.054.284.281.27.259-.016.52.01.779-.007a1.058,1.058,0,0,1,1.094.985c0,.049,0,.1,0,.149q0,4.859,0,9.718a1.056,1.056,0,0,1-.747,1.059,1.078,1.078,0,0,1-.377.055Q-1122.789-436.906-1125.723-436.909Zm1.622-3.715c.381,0,.763-.005,1.144,0,.161,0,.234-.034.233-.2q-.011-1.061,0-2.123c0-.158-.059-.208-.226-.207q-1.144.009-2.288,0c-.151,0-.22.036-.219.19q.009,1.072,0,2.144c0,.149.055.2.213.194C-1124.864-440.629-1124.482-440.624-1124.1-440.624Zm-4.6-1.252c0,.347.005.694,0,1.04,0,.153.051.215.223.214q1.155-.008,2.311,0c.144,0,.208-.041.208-.181q-.005-1.083,0-2.166c0-.122-.043-.182-.185-.181q-1.178,0-2.357,0c-.147,0-.2.055-.2.191C-1128.7-442.6-1128.7-442.237-1128.7-441.876Zm1.381-4.013c-.381,0-.763,0-1.144,0-.172,0-.244.049-.241.22q.013.913,0,1.825c0,.171.065.219.239.218q1.132-.008,2.264,0c.175,0,.244-.046.242-.216-.008-.608-.007-1.217,0-1.825,0-.163-.057-.228-.239-.224C-1126.576-445.883-1126.949-445.89-1127.323-445.889Zm3.219,2.26c.389,0,.778,0,1.166,0,.157,0,.215-.047.213-.2q-.01-.934,0-1.868c0-.144-.051-.2-.211-.2q-1.155.007-2.31,0c-.16,0-.213.054-.212.2q.008.934,0,1.868c0,.146.049.2.21.2C-1124.867-443.635-1124.485-443.629-1124.1-443.63Zm-3.219,3.474c-.381,0-.762,0-1.144,0-.173,0-.243.051-.241.221q.013.913,0,1.825c0,.173.069.219.24.218q1.143-.007,2.287,0c.155,0,.218-.046.217-.2q-.009-.923,0-1.847c0-.164-.059-.228-.239-.224C-1126.576-440.15-1126.95-440.155-1127.323-440.155Zm3.229,2.261c.389,0,.778,0,1.167,0,.145,0,.2-.044.2-.184q-.008-.945,0-1.889c0-.134-.049-.191-.2-.191q-1.167.005-2.333,0c-.149,0-.2.053-.2.188,0,.63.006,1.259,0,1.889,0,.158.072.19.221.188C-1124.857-437.9-1124.475-437.894-1124.094-437.895Zm-5.13-4c0-.34-.007-.68,0-1.019.005-.169-.047-.24-.244-.237-.656.009-1.312.007-1.968,0-.165,0-.23.044-.229.2.007.708.005,1.416,0,2.123,0,.14.039.2.206.2q1.006-.01,2.013,0c.176,0,.223-.062.219-.214C-1129.229-441.188-1129.224-441.542-1129.224-441.9Zm9.437.007c0-.354,0-.708,0-1.062,0-.143-.045-.2-.208-.2q-1.007.009-2.013,0c-.156,0-.217.049-.216.2q.007,1.072,0,2.144c0,.135.05.189.2.188q1.018-.007,2.036,0c.148,0,.2-.046.2-.184C-1119.791-441.167-1119.787-441.528-1119.787-441.889Zm-9.437-2.857c0-.312-.005-.624,0-.935,0-.156-.061-.213-.229-.211q-1,.008-1.993,0c-.157,0-.218.051-.217.2q.008.935,0,1.871c0,.148.057.2.215.2.664-.006,1.329-.007,1.993,0,.187,0,.237-.066.232-.227C-1129.23-444.15-1129.224-444.448-1129.224-444.745Zm9.437,0c0-.319,0-.638,0-.957,0-.135-.053-.19-.2-.189q-1.008.006-2.016,0c-.155,0-.22.05-.219.2q.007.935,0,1.87c0,.15.062.2.218.2.672,0,1.344-.006,2.016,0,.168,0,.208-.065.2-.2C-1119.792-444.136-1119.787-444.441-1119.787-444.745Zm-10.651,6.851c.328,0,.657-.005.985,0,.162,0,.235-.04.233-.2-.007-.617-.006-1.233,0-1.85,0-.155-.06-.214-.228-.213q-1,.008-1.993,0c-.156,0-.218.05-.217.2q.008.935,0,1.871c0,.148.056.2.214.2C-1131.111-437.9-1130.774-437.894-1130.438-437.894Zm9.438,0c.328,0,.657-.006.985,0,.161,0,.234-.037.232-.2-.008-.616-.006-1.233,0-1.849,0-.152-.048-.217-.222-.215q-1,.009-1.993,0c-.173,0-.224.066-.223.217q.008.925,0,1.849c0,.147.056.2.214.2C-1121.672-437.9-1121.336-437.894-1121-437.894Zm-.946-10.607c0-.262,0-.524,0-.786.01-.522.015-.613-.635-.594-.337.01-.452.106-.453.419,0,.559,0,1.119,0,1.678,0,.643.028.669.722.648.293-.009.361-.07.364-.346C-1121.943-447.822-1121.946-448.162-1121.946-448.5Zm-6.444,0v-.721c0-.658-.023-.679-.733-.658h-.023c-.222.01-.327.1-.328.3,0,.721,0,1.443,0,2.164,0,.175.1.264.276.275a4.466,4.466,0,0,0,.48,0c.234-.01.326-.1.329-.322C-1128.387-447.807-1128.391-448.154-1128.39-448.5Z" transform="translate(1132.732 450.899)" fill="#999"/>
</svg>
