<svg xmlns="http://www.w3.org/2000/svg" width="24" height="18" viewBox="0 0 24 18">
  <path id="Path_18341" data-name="Path 18341" d="M1005.809,500.205a1.5,1.5,0,0,0-.168-.3q-3.819-4.154-7.644-8.3a2.329,2.329,0,0,1-.438-2.619,2.292,2.292,0,0,1,2.17-1.336,2.374,2.374,0,0,1,1.682.836q2.126,2.322,4.264,4.633l.421.456c.21-.2.406-.376.6-.559q3.388-3.21,6.775-6.421c1.329-1.257,2.656-2.516,4-3.758a2.279,2.279,0,0,1,3.683.784,2.36,2.36,0,0,1-.611,2.674q-2.8,2.662-5.609,5.317-4.411,4.172-8.828,8.339C1006.038,500.01,1005.969,500.066,1005.809,500.205Z" transform="translate(-997.336 -482.205)" fill="#42ad3a"/>
</svg>
