<svg xmlns="http://www.w3.org/2000/svg" width="22" height="24" viewBox="0 0 22 24">
  <g id="Group_23648" data-name="Group 23648" transform="translate(-2063.85 -544.501)">
    <path id="Path_18342" data-name="Path 18342" d="M2079.561,548.4h4.677c.207,0,.413,0,.619,0a.965.965,0,1,1,.012,1.93c-.5.006-1,0-1.533,0v.381q0,7.025,0,14.05a3.517,3.517,0,0,1-3.611,3.738q-4.88,0-9.761,0a3.515,3.515,0,0,1-3.6-3.716q0-7.009,0-14.019v-.433c-.537,0-1.054.01-1.571,0a.966.966,0,1,1,.087-1.929q2.448,0,4.9,0h.318c.053-.406.071-.8.159-1.178a3.448,3.448,0,0,1,3.32-2.713q1.268-.012,2.536,0a3.515,3.515,0,0,1,3.455,3.56C2079.563,548.165,2079.561,548.264,2079.561,548.4Zm-11.325,1.943v.362q0,7.04,0,14.08a1.62,1.62,0,0,0,1.719,1.789q4.895,0,9.79,0a1.617,1.617,0,0,0,1.717-1.761q0-7.07,0-14.141v-.33Zm9.435-1.958a1.629,1.629,0,0,0-1.716-1.945c-.785,0-1.57-.006-2.355,0a1.6,1.6,0,0,0-1.554,1.944Z" transform="translate(0 0)" fill="#eb0000"/>
    <path id="Path_18343" data-name="Path 18343" d="M2099.293,588.59c0,1.3,0,2.594,0,3.891a.94.94,0,0,1-.647.916.862.862,0,0,1-1-.325,1.282,1.282,0,0,1-.209-.644q-.021-3.846-.006-7.692a.935.935,0,1,1,1.862.023C2099.3,586.036,2099.293,587.313,2099.293,588.59Z" transform="translate(-26.032 -30.139)" fill="#eb0000"/>
    <path id="Path_18344" data-name="Path 18344" d="M2119.878,588.612c0-1.307-.005-2.615,0-3.922a.912.912,0,0,1,.722-.911.9.9,0,0,1,1.044.536,1.084,1.084,0,0,1,.092.41q.008,3.876,0,7.752a.952.952,0,0,1-.687.952.879.879,0,0,1-1-.39,1.363,1.363,0,0,1-.164-.628c-.014-1.267-.007-2.533-.007-3.8Z" transform="translate(-43.439 -30.159)" fill="#eb0000"/>
  </g>
</svg>
