<svg xmlns="http://www.w3.org/2000/svg" width="26" height="24" viewBox="0 0 26 24">
  <g id="Group_23647" data-name="Group 23647" transform="translate(-1618.319 -129.773)">
    <path id="Path_17698" data-name="Path 17698" d="M1644.319,153.181a.99.99,0,0,1-1.027.592q-11.994-.015-23.988-.007c-.719,0-.984-.277-.984-1.026q0-1.527,0-3.054c0-.679.278-.971.93-.971h4.585c-.054-.275-.1-.522-.152-.769q-.62-2.937-1.24-5.874c-.145-.69.18-1.109.853-1.11h1.6a5.12,5.12,0,0,1,3.4-4.1,4.467,4.467,0,0,1,.418-6.084,3.889,3.889,0,0,1,5.223.014,4.467,4.467,0,0,1,.4,6.068,5.127,5.127,0,0,1,3.4,4.106h1.6c.674,0,1,.42.857,1.107q-.663,3.16-1.331,6.319c-.02.094-.034.19-.059.327h.29c1.413,0,2.826.012,4.239-.007a.913.913,0,0,1,.984.614Zm-20.208-10.6c.424,2.005.844,3.978,1.252,5.955.049.238.193.18.324.18q5.621,0,11.241.008c.242,0,.331-.072.381-.32.257-1.282.534-2.559.8-3.838.138-.657.273-1.315.412-1.985Zm18.676,7.765H1619.86v1.8h22.926Zm-16.323-9.391h9.693a1.616,1.616,0,0,0-.021-.166,3.328,3.328,0,0,0-2.947-2.5c-1.2-.032-2.4-.013-3.6-.01a2.958,2.958,0,0,0-1.7.554A3.462,3.462,0,0,0,1626.463,140.952Zm2.359-6.934a2.5,2.5,0,1,0,2.493-2.645A2.578,2.578,0,0,0,1628.823,134.018Z" fill="#23aba5"/>
    <path id="Path_17699" data-name="Path 17699" d="M1799.495,341.733a.776.776,0,0,1-.769-.782.763.763,0,1,1,1.522-.018A.778.778,0,0,1,1799.495,341.733Z" transform="translate(-168.168 -195.296)" fill="#23aba5"/>
  </g>
</svg>
