<svg id="Component_34_40" data-name="Component 34 – 40" xmlns="http://www.w3.org/2000/svg" width="20" height="20" viewBox="0 0 20 20">
  <rect id="Rectangle_8417" data-name="Rectangle 8417" width="20" height="20" rx="4" fill="#fff"/>
  <g id="Group_23063" data-name="Group 23063" transform="translate(497.455 -111)">
    <path id="Path_17691" data-name="Path 17691" d="M-493.06,114h7.136c.011.007.022.019.034.02a1.621,1.621,0,0,1,1.357,1.68c-.013,1.225,0,2.451,0,3.677v.155a4.152,4.152,0,0,0-3.868,2.251,4.129,4.129,0,0,0,.281,4.462c-.031,0-.053,0-.074,0-1.562,0-3.125.005-4.688,0a1.591,1.591,0,0,1-1.568-1.589q0-4.531,0-9.062a1.523,1.523,0,0,1,.916-1.437A3.63,3.63,0,0,1-493.06,114Zm3.582,4.669h-1.531c-.383,0-.766-.007-1.148,0a.575.575,0,0,0-.508.785.586.586,0,0,0,.594.372h5.152c.032,0,.064,0,.1,0a.578.578,0,0,0,.516-.438.577.577,0,0,0-.588-.72C-487.756,118.667-488.617,118.669-489.478,118.669ZM-490.659,121c-.474,0-.947,0-1.421,0a.586.586,0,0,0-.624.582.587.587,0,0,0,.623.586q1.421,0,2.841,0a.58.58,0,0,0,.615-.591.583.583,0,0,0-.627-.577Zm-.3-3.5c.378,0,.755,0,1.133,0a.587.587,0,0,0,.624-.583.585.585,0,0,0-.609-.584q-1.14-.006-2.28,0a.585.585,0,0,0-.61.584.587.587,0,0,0,.623.583C-491.708,117.5-491.335,117.5-490.962,117.5Z" fill="#999"/>
    <path id="Path_17692" data-name="Path 17692" d="M-304.219,305.325a3.75,3.75,0,0,1-.421-.312c-.463-.451-.916-.913-1.379-1.377a3.043,3.043,0,0,1-2.641.376,2.979,2.979,0,0,1-1.685-1.316,3.054,3.054,0,0,1,.568-3.882,3.062,3.062,0,0,1,3.932-.125,3.09,3.09,0,0,1,.63,4.157.519.519,0,0,1,.121.071c.424.42.85.839,1.265,1.267a4.005,4.005,0,0,1,.321.431v.246a.687.687,0,0,1-.465.465Zm-5.413-4.234a1.9,1.9,0,0,0,1.89,1.9,1.908,1.908,0,0,0,1.9-1.893,1.9,1.9,0,0,0-1.893-1.9A1.9,1.9,0,0,0-309.633,301.091Z" transform="translate(-176.947 -177.325)" fill="#999"/>
  </g>
</svg>
