<svg id="Component_34_41" data-name="Component 34 – 41" xmlns="http://www.w3.org/2000/svg" width="20" height="20" viewBox="0 0 20 20">
  <rect id="Rectangle_8417" data-name="Rectangle 8417" width="20" height="20" rx="4" fill="#fff"/>
  <g id="Group_22664" data-name="Group 22664" transform="translate(-40.879 3)">
    <path id="Path_14218" data-name="Path 14218" d="M2386.586,736.647c-.17,0-.209-.1-.182-.248.118-.654.273-1.3.337-1.963a2.4,2.4,0,0,1,.778-1.483c2.119-2.193,4.219-4.4,6.325-6.609.051-.054.1-.107.156-.158a.241.241,0,0,1,.374-.009l2.166,2.021c.156.146.115.278-.02.418q-1.341,1.4-2.676,2.8-2.086,2.179-4.176,4.353a1.038,1.038,0,0,1-.462.283c-.832.208-1.67.389-2.506.58C2386.665,736.638,2386.628,736.641,2386.586,736.647Z" transform="translate(-2342.518 -722.646)" fill="#999"/>
    <path id="Path_14219" data-name="Path 14219" d="M2574.681,679.626c-.294-.248-1.471-1.379-2.2-2.073a.323.323,0,0,1-.016-.542q.693-.743,1.4-1.477c.179-.187.307-.185.5-.006q1.118,1.054,2.232,2.113c.2.191.2.307.013.512q-.686.734-1.38,1.459A.343.343,0,0,1,2574.681,679.626Z" transform="translate(-2518.865 -675.395)" fill="#999"/>
  </g>
</svg>
