<svg xmlns="http://www.w3.org/2000/svg" width="20" height="14" viewBox="0 0 20 14">
  <g id="nhập_excel" data-name="nhập excel" transform="translate(0 0)">
    <path id="Path_13705" data-name="Path 13705" d="M21.356,8.458l-1.1.8c-.055-.043-.1-.078-.148-.119A1.572,1.572,0,0,0,18.989,8.7c-3.07,0-6.141,0-9.211,0a1.5,1.5,0,0,0-1.61,1.557c-.007,2.9,0,5.8-.011,8.7a1.518,1.518,0,0,0,1,1.577,1.913,1.913,0,0,0,.672.11q4.565.01,9.129,0a1.536,1.536,0,0,0,1.629-1.572q0-1.922,0-3.844c0-.067.012-.134.023-.254.356.254.682.477.993.716.048.037.055.145.055.22,0,1.326.011,2.652,0,3.978a1.758,1.758,0,0,1-1.852,1.778q-5.446.013-10.894,0A1.766,1.766,0,0,1,7.1,19.883q-.009-5.171-.008-10.339A1.8,1.8,0,0,1,9.043,7.67H19.8A1.819,1.819,0,0,1,21.356,8.458Z" transform="translate(-7.088 -7.67)" fill="#2185d0"/>
    <path id="Path_13706" data-name="Path 13706" d="M213.727,33.609l3.666-2.858-3.676-2.911v1.067c0,.472-.1.6-.54.622a4.585,4.585,0,0,0-2.329.763,4.988,4.988,0,0,0-1.969,3.005c-.1.355-.161.719-.239,1.078l.061.031.159-.217a6.284,6.284,0,0,1,2.287-2.1,3.411,3.411,0,0,1,2.232-.274.407.407,0,0,1,.352.46C213.73,32.7,213.727,33.13,213.727,33.609Z" transform="translate(-197.394 -26.402)" fill="#2185d0"/>
    <path id="Path_13707" data-name="Path 13707" d="M93.8,88.553c-.336.507-.633.957-.931,1.4-.25.376-.5.756-.758,1.123a.275.275,0,0,0,0,.372c.5.741.992,1.489,1.486,2.234.048.072.095.146.164.253a2.222,2.222,0,0,1-.227.029c-.434,0-.868-.006-1.3.006a.387.387,0,0,1-.387-.205c-.233-.375-.491-.734-.768-1.143a5.427,5.427,0,0,0-.511.753.964.964,0,0,1-1.139.6,8.5,8.5,0,0,0-1.054-.008c.231-.355.429-.664.631-.971.337-.51.671-1.022,1.019-1.524a.313.313,0,0,0,0-.419c-.485-.709-.957-1.427-1.43-2.143-.066-.1-.129-.2-.226-.356.612,0,1.165-.005,1.718.007.064,0,.14.1.187.163.261.375.515.756.8,1.175.277-.409.534-.775.775-1.153a.371.371,0,0,1,.364-.2C92.725,88.561,93.228,88.553,93.8,88.553Z" transform="translate(-83.895 -84.264)" fill="#2185d0"/>
  </g>
</svg>
