<svg xmlns="http://www.w3.org/2000/svg" width="80" height="30" viewBox="0 0 80 30">
  <g id="Group_23060" data-name="Group 23060" transform="translate(-909 -644)">
    <rect id="Rectangle_8670" data-name="Rectangle 8670" width="80" height="30" rx="4" transform="translate(909 644)" fill="#2185d0"/>
    <text id="Lưu" transform="translate(949 664)" fill="#fff" font-size="13" font-family="SegoeUI, Segoe UI"><tspan x="0" y="0">Lưu</tspan></text>
    <g id="Group_3748" data-name="Group 3748" transform="translate(927 652)">
      <path id="Path_8384" data-name="Path 8384" d="M8.063,15.887h-5.3a1.58,1.58,0,0,1-1.676-1.664V3.551A1.578,1.578,0,0,1,2.586,1.9h.148c3.038,0,6.078-.008,9.125.008a1.361,1.361,0,0,1,.849.289,29.1,29.1,0,0,1,2.065,2.07,1.423,1.423,0,0,1,.3.881c.022,3.029.014,6.058.012,9.087a1.577,1.577,0,0,1-1.5,1.655,1.327,1.327,0,0,1-.15,0Q10.75,15.889,8.063,15.887Zm0-1.545h4.679c.519,0,.707-.184.707-.681v-4.1a.573.573,0,0,0-.486-.652A.347.347,0,0,0,12.9,8.9a3,3,0,0,0-.422-.027H4.555c-.377,0-.748-.012-1.121,0-.56.023-.728.207-.728.762v3.949c0,.591.167.762.755.763ZM7.806,7.229H11.17c.514,0,.66-.149.66-.67V3.123c0-.515-.18-.7-.692-.7H4.49c-.512,0-.7.189-.706.691V6.555c0,.529.157.681.7.681Z" transform="translate(-1.085 -1.893)" fill="#fff"/>
      <path id="Path_8385" data-name="Path 8385" d="M87,17.328V13.58h1.576v3.748Z" transform="translate(-78.899 -12.474)" fill="#fff"/>
    </g>
  </g>
</svg>
