<svg id="Group_23128" data-name="Group 23128" xmlns="http://www.w3.org/2000/svg" width="14" height="13.999" viewBox="0 0 14 13.999">
  <path id="Path_13805" data-name="Path 13805" d="M2011.806,483.179h1.586a.306.306,0,0,0,.049.022.854.854,0,0,1,.677.75c.049.319.086.641.12.962a.179.179,0,0,0,.136.174c.2.073.4.156.592.246a.15.15,0,0,0,.182-.023c.246-.2.495-.388.743-.58a.865.865,0,0,1,1.219.066q.439.431.87.87a.863.863,0,0,1,.074,1.209c-.191.25-.383.5-.579.744a.166.166,0,0,0-.027.205,6.259,6.259,0,0,1,.24.579.18.18,0,0,0,.174.136c.339.038.679.076,1.015.132a.85.85,0,0,1,.717.841q.008.67,0,1.339a.849.849,0,0,1-.711.833c-.341.057-.685.1-1.029.135a.172.172,0,0,0-.164.129c-.072.2-.15.391-.239.58a.166.166,0,0,0,.019.206c.2.248.4.5.588.754a.863.863,0,0,1-.075,1.2q-.435.444-.879.879a.862.862,0,0,1-1.2.072c-.257-.2-.512-.395-.765-.6a.142.142,0,0,0-.171-.021c-.2.091-.408.179-.617.256a.152.152,0,0,0-.113.146c-.036.312-.076.624-.114.935a.88.88,0,0,1-.924.819c-.419,0-.838,0-1.258,0a.853.853,0,0,1-.854-.72c-.056-.336-.094-.676-.132-1.015a.18.18,0,0,0-.136-.174c-.2-.071-.39-.152-.579-.239a.159.159,0,0,0-.194.019q-.373.3-.755.588a.865.865,0,0,1-1.209-.075q-.438-.432-.87-.87a.862.862,0,0,1-.073-1.208c.2-.257.4-.51.591-.769a.188.188,0,0,0,.02-.153c-.08-.213-.167-.423-.262-.629a.205.205,0,0,0-.131-.1c-.311-.046-.623-.083-.935-.119a.836.836,0,0,1-.614-.315,2.779,2.779,0,0,1-.212-.421v-1.613a.209.209,0,0,0,.026-.044.873.873,0,0,1,.781-.661c.311-.042.623-.081.935-.115a.171.171,0,0,0,.164-.129c.074-.2.155-.4.245-.591a.158.158,0,0,0-.025-.193q-.3-.374-.587-.754a.864.864,0,0,1,.081-1.208q.428-.431.86-.859a.864.864,0,0,1,1.218-.079c.257.2.509.4.768.591a.173.173,0,0,0,.141.023q.331-.126.654-.271a.177.177,0,0,0,.089-.115c.036-.238.061-.478.092-.717a1.4,1.4,0,0,1,.191-.688A1,1,0,0,1,2011.806,483.179Zm.706,9.915a2.917,2.917,0,1,0-2.829-3.01A2.924,2.924,0,0,0,2012.512,493.094Z" transform="translate(-2005.6 -483.179)" fill="#2185d0"/>
</svg>
