<svg xmlns="http://www.w3.org/2000/svg" width="20" height="26" viewBox="0 0 20 26">
  <g id="Group_22964" data-name="Group 22964" transform="translate(-383.052 438.613)">
    <path id="Path_13827" data-name="Path 13827" d="M389.384-437.078h2.672c0-.181,0-.359,0-.537a.993.993,0,0,1,.985-1,.994.994,0,0,1,1,1c0,.171,0,.341,0,.527h2.668c0-.175,0-.337,0-.5a1.007,1.007,0,0,1,1.009-1.033,1.008,1.008,0,0,1,1,1.047c0,.154,0,.309,0,.5h.292q1.458,0,2.916,0a1.014,1.014,0,0,1,1.122,1.127q0,11.08,0,22.159a1.036,1.036,0,0,1-1.168,1.166H384.231a1.031,1.031,0,0,1-1.18-1.174q0-11.054,0-22.107a1.03,1.03,0,0,1,1.181-1.172h3.149c0-.193,0-.363,0-.533a1,1,0,0,1,.976-1.014,1,1,0,0,1,1.024.962C389.4-437.47,389.384-437.288,389.384-437.078Zm11.6,22.4v-20.315h-2.238c-.106.962-.338,1.292-.957,1.286a1.345,1.345,0,0,1-.676-.2,1.1,1.1,0,0,1-.4-1.085h-2.642c-.119.921-.38,1.289-.957,1.286a1.319,1.319,0,0,1-.655-.189,1.088,1.088,0,0,1-.4-1.117h-2.651c-.085.9-.364,1.3-.937,1.3a1.325,1.325,0,0,1-.679-.189,1.087,1.087,0,0,1-.41-1.093h-2.315v20.312Z" transform="translate(0 0)" fill="#1a7ac2"/>
    <path id="Path_13828" data-name="Path 13828" d="M451.034-209.376q2.291,0,4.582,0a1.021,1.021,0,0,1,1.064.666,1.021,1.021,0,0,1-.928,1.324c-.06.005-.121,0-.182,0h-9.112a1.006,1.006,0,0,1-1.088-.8.979.979,0,0,1,.8-1.168,2.494,2.494,0,0,1,.389-.023Q448.795-209.377,451.034-209.376Z" transform="translate(-57.962 -213.363)" fill="#1a7ac2"/>
    <path id="Path_13829" data-name="Path 13829" d="M451.033-298.048c1.544,0,3.088,0,4.632,0a.986.986,0,0,1,.992,1.279.956.956,0,0,1-.8.688,1.883,1.883,0,0,1-.337.021q-4.54,0-9.081,0a1.018,1.018,0,0,1-1.076-.683.994.994,0,0,1,.987-1.305c1.11-.006,2.22,0,3.331,0Z" transform="translate(-57.928 -130.83)" fill="#1a7ac2"/>
  </g>
</svg>
