<svg xmlns="http://www.w3.org/2000/svg" width="90" height="32" viewBox="0 0 90 32">
  <g id="Group_23144" data-name="Group 23144" transform="translate(-420.945 -96.497)">
    <g id="Group_2" data-name="Group 2" transform="translate(420.945 96.497)">
      <path id="Path_1" data-name="Path 1" d="M440.967,109.848H434.36L420.945,96.5h6.607Z" transform="translate(-420.945 -96.497)" fill="#70b900"/>
      <g id="Group_1" data-name="Group 1" transform="translate(4.225 2.719)">
        <path id="Path_2" data-name="Path 2" d="M447.8,170.435H441.19l9.19-9.169h6.607Z" transform="translate(-441.19 -150.634)" fill="#42ad3a"/>
        <path id="Path_3" data-name="Path 3" d="M512.7,118.7l-3.292-3.274,5.717-5.738h6.607Z" transform="translate(-495.174 -109.687)" fill="#035393"/>
      </g>
      <path id="Path_4" data-name="Path 4" d="M531.064,187.317h-6.607l-13.708-13.641,3.288-3.278Z" transform="translate(-492.007 -155.317)" fill="#fe6e04"/>
    </g>
    <g id="Group_4" data-name="Group 4" transform="translate(448.891 102.83)">
      <g id="Group_3" data-name="Group 3">
        <path id="Path_5" data-name="Path 5" d="M559.537,136.569v4.441h-1.446a1.176,1.176,0,0,1-1.183-1.169V129.575a1.176,1.176,0,0,1,1.183-1.169h3.794a5.819,5.819,0,0,1,2.528.519,3.859,3.859,0,0,1,1.678,1.476,4.078,4.078,0,0,1,.587,2.177A3.6,3.6,0,0,1,565.4,135.5a5.392,5.392,0,0,1-3.554,1.069Zm0-2.1h2.349a2.328,2.328,0,0,0,1.591-.485,1.752,1.752,0,0,0,.548-1.385,1.96,1.96,0,0,0-2.077-2.086h-2.41Z" transform="translate(-556.908 -127.714)" fill="#035393"/>
        <path id="Path_6" data-name="Path 6" d="M616.91,145.79a6.971,6.971,0,0,0-.911-.069,1.86,1.86,0,0,0-1.884.961v6.129h-1.35a1.176,1.176,0,0,1-1.183-1.169v-8.2h2.392l.07,1.117a2.351,2.351,0,0,1,2.112-1.29,2.69,2.69,0,0,1,.789.113Z" transform="translate(-600.172 -139.514)" fill="#035393"/>
        <path id="Path_7" data-name="Path 7" d="M639.549,148.041a5.494,5.494,0,0,1,.544-2.484,3.945,3.945,0,0,1,1.564-1.688,4.606,4.606,0,0,1,2.371-.6,4.349,4.349,0,0,1,3.133,1.16,4.629,4.629,0,0,1,1.354,3.151l.018.641a4.859,4.859,0,0,1-1.218,3.458,4.763,4.763,0,0,1-6.542,0,4.945,4.945,0,0,1-1.223-3.532Zm2.533.178a3.466,3.466,0,0,0,.508,2.042,1.84,1.84,0,0,0,2.892.009,3.794,3.794,0,0,0,.517-2.232,3.434,3.434,0,0,0-.517-2.029,1.688,1.688,0,0,0-1.455-.719,1.66,1.66,0,0,0-1.437.715A3.857,3.857,0,0,0,642.082,148.218Z" transform="translate(-622.302 -139.514)" fill="#035393"/>
        <path id="Path_8" data-name="Path 8" d="M688.176,133.59a5.6,5.6,0,0,1,.995-3.488,3.242,3.242,0,0,1,2.721-1.3,2.921,2.921,0,0,1,2.287,1.021v-4.778h1.358a1.176,1.176,0,0,1,1.183,1.169v12.127h-2.287l-.123-1a2.994,2.994,0,0,1-2.436,1.169,3.233,3.233,0,0,1-2.686-1.3A5.774,5.774,0,0,1,688.176,133.59Zm2.533.186a3.661,3.661,0,0,0,.464,2.02,1.518,1.518,0,0,0,1.35.7,1.7,1.7,0,0,0,1.656-.98v-3.7a1.673,1.673,0,0,0-1.639-.98Q690.708,130.838,690.708,133.777Z" transform="translate(-660.781 -125.047)" fill="#035393"/>
        <path id="Path_9" data-name="Path 9" d="M743.971,152.525a3.194,3.194,0,0,1-2.594,1.125,3.016,3.016,0,0,1-2.327-.866,3.665,3.665,0,0,1-.819-2.536v-6.137h1.349a1.176,1.176,0,0,1,1.183,1.169v4.889q0,1.464,1.35,1.464a1.835,1.835,0,0,0,1.77-.884v-6.638h2.541v9.366h-2.384Z" transform="translate(-700.39 -140.181)" fill="#035393"/>
        <path id="Path_10" data-name="Path 10" d="M789.1,150.966a1.674,1.674,0,0,0,1.139-.381,1.328,1.328,0,0,0,.456-1.013h2.375a3.182,3.182,0,0,1-.526,1.744,3.456,3.456,0,0,1-1.415,1.229,4.475,4.475,0,0,1-1.985.437,4.142,4.142,0,0,1-3.207-1.277,5.013,5.013,0,0,1-1.174-3.527v-.164a4.956,4.956,0,0,1,1.166-3.454,4.093,4.093,0,0,1,3.2-1.29,4.019,4.019,0,0,1,2.852,1,3.519,3.519,0,0,1,1.091,2.662h-2.375a1.708,1.708,0,0,0-.456-1.188,1.708,1.708,0,0,0-2.493.18,3.655,3.655,0,0,0-.451,2.068v.26a3.7,3.7,0,0,0,.447,2.081A1.551,1.551,0,0,0,789.1,150.966Z" transform="translate(-737.207 -139.514)" fill="#035393"/>
        <path id="Path_11" data-name="Path 11" d="M831.171,134.11v1.134h1.621v1.835h-1.621v4.674a1.106,1.106,0,0,0,.2.745,1.021,1.021,0,0,0,.771.225,4.091,4.091,0,0,0,.745-.06v1.9a5.28,5.28,0,0,1-1.534.225,2.4,2.4,0,0,1-2.717-2.657v-5.046h-1.385v-1.835h1.385v-2.3h1.349A1.176,1.176,0,0,1,831.171,134.11Z" transform="translate(-770.835 -131.314)" fill="#035393"/>
      </g>
    </g>
  </g>
</svg>
